<svg width="202" height="62" viewBox="0 0 202 62" fill="none" xmlns="http://www.w3.org/2000/svg">
<path d="M28.2172 34.5006C27.8806 37.6975 26.4673 40.3224 23.977 42.3751C21.5204 44.4279 18.5591 45.4543 15.0929 45.4543C11.1893 45.4543 7.95869 44.2428 5.40114 41.8199C2.87724 39.397 1.61529 36.301 1.61529 32.532C1.61529 28.7629 2.87724 25.667 5.40114 23.244C7.95869 20.7874 11.1893 19.5591 15.0929 19.5591C18.5927 19.5591 21.5709 20.6023 24.0275 22.6888C26.4841 24.7415 27.8806 27.3664 28.2172 30.5633H21.5541C21.2176 29.0153 20.4604 27.7534 19.2826 26.7775C18.1047 25.7679 16.725 25.2631 15.1434 25.2631C13.1579 25.2631 11.5258 25.953 10.247 27.3327C9.0019 28.6788 8.37934 30.4119 8.37934 32.532C8.37934 34.6184 9.01872 36.3514 10.2975 37.7312C11.5763 39.0773 13.1916 39.7503 15.1434 39.7503C16.725 39.7503 18.1047 39.2623 19.2826 38.2864C20.494 37.3105 21.268 36.0486 21.6046 34.5006H28.2172ZM55.9733 20.0639V34.652C55.9733 37.849 54.8796 40.457 52.6922 42.4761C50.5385 44.4616 47.7286 45.4543 44.2624 45.4543C40.7963 45.4543 37.9527 44.4616 35.7317 42.4761C33.5443 40.457 32.4506 37.849 32.4506 34.652V20.0639H39.0127V34.652C39.0127 36.2673 39.4839 37.5797 40.4261 38.5893C41.402 39.5652 42.664 40.0532 44.212 40.0532C45.7599 40.0532 47.0051 39.5652 47.9473 38.5893C48.9232 37.5797 49.4112 36.2673 49.4112 34.652V20.0639H55.9733ZM87.2302 32.5824C87.2302 33.3564 87.1629 34.0126 87.0283 34.5511H66.8876C67.2578 36.2 68.0822 37.5461 69.361 38.5893C70.6398 39.5989 72.1373 40.1036 73.8535 40.1036C75.3006 40.1036 76.5962 39.7335 77.7403 38.9931C78.8845 38.2191 79.6922 37.2601 80.1633 36.1159H86.7759C86.0692 38.8417 84.5044 41.0795 82.0814 42.8294C79.6585 44.5794 76.899 45.4543 73.8031 45.4543C69.8994 45.4543 66.6688 44.2428 64.1113 41.8199C61.5874 39.397 60.3255 36.301 60.3255 32.532C60.3255 28.7629 61.5874 25.667 64.1113 23.244C66.6688 20.7874 69.8994 19.5591 73.8031 19.5591C77.673 19.5591 80.87 20.7874 83.3939 23.244C85.9178 25.667 87.1965 28.7798 87.2302 32.5824ZM73.8535 24.9098C72.3056 24.9098 70.9258 25.3304 69.7144 26.1717C68.5365 27.013 67.6784 28.1404 67.14 29.5538H80.8195C80.3147 28.174 79.4229 27.0635 78.1442 26.2222C76.8654 25.3473 75.4352 24.9098 73.8535 24.9098ZM95.6943 23.244C98.2182 20.8211 101.432 19.6096 105.336 19.6096C109.239 19.6096 112.436 20.8379 114.926 23.2945C117.417 25.7511 118.662 28.9312 118.662 32.8348C118.662 36.5029 117.551 39.5316 115.33 41.9208C113.143 44.3101 110.383 45.5048 107.052 45.5048C103.148 45.5048 100.305 44.1755 98.5211 41.517V55.0956H91.9589V32.532C91.9589 28.7629 93.2041 25.667 95.6943 23.244ZM105.437 40.2551C107.456 40.2551 109.105 39.5484 110.383 38.135C111.662 36.688 112.302 34.8203 112.302 32.532C112.302 30.2773 111.662 28.4432 110.383 27.0299C109.105 25.5828 107.456 24.8593 105.437 24.8593C103.384 24.8593 101.718 25.5828 100.439 27.0299C99.1605 28.4432 98.5211 30.2773 98.5211 32.532C98.5211 34.8203 99.1605 36.688 100.439 38.135C101.718 39.5484 103.384 40.2551 105.437 40.2551ZM134.483 19.5591C138.353 19.5591 141.55 20.7874 144.073 23.244C146.597 25.667 147.859 28.7629 147.859 32.532V45H141.247V41.517C139.429 44.1419 136.586 45.4543 132.716 45.4543C129.418 45.4543 126.659 44.2597 124.438 41.8704C122.217 39.4811 121.106 36.4692 121.106 32.8348C121.106 28.9312 122.351 25.7511 124.841 23.2945C127.365 20.8042 130.579 19.5591 134.483 19.5591ZM129.738 37.7312C130.983 39.0773 132.581 39.7503 134.533 39.7503C136.485 39.7503 138.083 39.0773 139.329 37.7312C140.607 36.3514 141.247 34.6184 141.247 32.532C141.247 30.4119 140.607 28.6788 139.329 27.3327C138.083 25.953 136.485 25.2631 134.533 25.2631C132.581 25.2631 130.983 25.953 129.738 27.3327C128.493 28.6788 127.87 30.4119 127.87 32.532C127.87 34.6184 128.493 36.3514 129.738 37.7312ZM155.897 21.6792C157.782 20.2658 160.238 19.5591 163.267 19.5591C166.296 19.5591 168.769 20.2995 170.687 21.7802C172.605 23.2608 173.564 25.1622 173.564 27.4842H167.558C167.49 26.5083 167.07 25.7174 166.296 25.1117C165.522 24.4723 164.529 24.1526 163.317 24.1526C162.207 24.1526 161.298 24.405 160.592 24.9098C159.885 25.4146 159.532 26.0708 159.532 26.8784C159.532 27.787 160.003 28.4769 160.945 28.948C161.921 29.3855 163.452 29.823 165.538 30.2604C166.413 30.4287 167.187 30.6138 167.86 30.8157C168.533 31.0176 169.291 31.3205 170.132 31.7243C171.007 32.1281 171.73 32.5824 172.302 33.0872C172.875 33.5583 173.346 34.1977 173.716 35.0054C174.12 35.813 174.322 36.7048 174.322 37.6807C174.322 39.969 173.312 41.8367 171.293 43.2838C169.307 44.7308 166.733 45.4543 163.57 45.4543C160.339 45.4543 157.698 44.6971 155.645 43.1828C153.592 41.6685 152.566 39.7335 152.566 37.3778H158.926C158.993 38.3874 159.447 39.2119 160.289 39.8513C161.13 40.457 162.207 40.7599 163.519 40.7599C164.731 40.7599 165.723 40.4906 166.497 39.9522C167.271 39.4138 167.658 38.7239 167.658 37.8826C167.658 36.974 167.187 36.301 166.245 35.8635C165.303 35.426 163.822 34.9885 161.803 34.5511C161.467 34.4838 161.214 34.4333 161.046 34.3996C155.729 33.1545 153.07 30.7484 153.07 27.1813C153.07 24.9266 154.013 23.0926 155.897 21.6792ZM180.643 21.6792C182.528 20.2658 184.984 19.5591 188.013 19.5591C191.042 19.5591 193.515 20.2995 195.433 21.7802C197.351 23.2608 198.31 25.1622 198.31 27.4842H192.304C192.236 26.5083 191.816 25.7174 191.042 25.1117C190.268 24.4723 189.275 24.1526 188.063 24.1526C186.953 24.1526 186.044 24.405 185.338 24.9098C184.631 25.4146 184.278 26.0708 184.278 26.8784C184.278 27.787 184.749 28.4769 185.691 28.948C186.667 29.3855 188.198 29.823 190.284 30.2604C191.159 30.4287 191.933 30.6138 192.606 30.8157C193.279 31.0176 194.037 31.3205 194.878 31.7243C195.753 32.1281 196.476 32.5824 197.048 33.0872C197.621 33.5583 198.092 34.1977 198.462 35.0054C198.866 35.813 199.068 36.7048 199.068 37.6807C199.068 39.969 198.058 41.8367 196.039 43.2838C194.053 44.7308 191.479 45.4543 188.316 45.4543C185.085 45.4543 182.444 44.6971 180.391 43.1828C178.338 41.6685 177.312 39.7335 177.312 37.3778H183.672C183.739 38.3874 184.193 39.2119 185.035 39.8513C185.876 40.457 186.953 40.7599 188.265 40.7599C189.477 40.7599 190.47 40.4906 191.244 39.9522C192.018 39.4138 192.404 38.7239 192.404 37.8826C192.404 36.974 191.933 36.301 190.991 35.8635C190.049 35.426 188.568 34.9885 186.549 34.5511C186.213 34.4838 185.96 34.4333 185.792 34.3996C180.475 33.1545 177.816 30.7484 177.816 27.1813C177.816 24.9266 178.759 23.0926 180.643 21.6792Z" fill="#FF1100"/>
</svg>
